<svg width="1440" height="262" viewBox="0 0 1440 262" fill="none" xmlns="http://www.w3.org/2000/svg">
<path fill-rule="evenodd" clip-rule="evenodd" d="M240 144L290 126C340 108 440 72 540 72C640 72 740 108 840 138C940 168 1040 192 1140 192C1240 192 1340 168 1390 156L1440 144V0H1390C1340 0 1240 0 1140 0C1040 0 940 0 840 0C740 0 640 0 540 0C440 0 340 0 290 0H240V144Z" fill="#03EB97"/>
<path fill-rule="evenodd" clip-rule="evenodd" d="M0 130L80 166C160 202 320 274 480 259C640 245 800 144 960 94C1120 43 1280 43 1360 43H1440V0H1360C1280 0 1120 0 960 0C800 0 640 0 480 0C320 0 160 0 80 0H0V130Z" fill="#037EEE"/>
</svg>
